<mxfile host="app.diagrams.net" agent="Mozilla/5.0 (Windows NT 10.0; Win64; x64) AppleWebKit/537.36 (KHTML, like Gecko) Chrome/127.0.0.0 Safari/537.36" version="24.7.6">
  <diagram name="Página-1" id="ASL7EYoQqgXapV5xWy3M">
    <mxGraphModel dx="2261" dy="752" grid="1" gridSize="10" guides="1" tooltips="1" connect="1" arrows="1" fold="1" page="1" pageScale="1" pageWidth="827" pageHeight="1169" math="0" shadow="0">
      <root>
        <mxCell id="0" />
        <mxCell id="1" parent="0" />
        <mxCell id="1Br-K4Cn2IBCW6UkXx3d-42" value="" style="group" vertex="1" connectable="0" parent="1">
          <mxGeometry x="-230" y="190" width="130" height="300" as="geometry" />
        </mxCell>
        <mxCell id="1Br-K4Cn2IBCW6UkXx3d-8" value="" style="rounded=1;whiteSpace=wrap;html=1;direction=south;" vertex="1" parent="1Br-K4Cn2IBCW6UkXx3d-42">
          <mxGeometry width="130" height="300" as="geometry" />
        </mxCell>
        <mxCell id="1Br-K4Cn2IBCW6UkXx3d-9" value="" style="verticalLabelPosition=bottom;html=1;verticalAlign=top;align=center;strokeColor=none;fillColor=#00BEF2;shape=mxgraph.azure.user;" vertex="1" parent="1Br-K4Cn2IBCW6UkXx3d-42">
          <mxGeometry x="41.25" y="20" width="47.5" height="50" as="geometry" />
        </mxCell>
        <mxCell id="1Br-K4Cn2IBCW6UkXx3d-11" value="" style="html=1;verticalLabelPosition=bottom;align=center;labelBackgroundColor=#ffffff;verticalAlign=top;strokeWidth=2;strokeColor=#0080F0;shadow=0;dashed=0;shape=mxgraph.ios7.icons.smartphone;" vertex="1" parent="1Br-K4Cn2IBCW6UkXx3d-42">
          <mxGeometry x="51.5" y="94" width="28.5" height="56" as="geometry" />
        </mxCell>
        <mxCell id="1Br-K4Cn2IBCW6UkXx3d-12" value="" style="fontColor=#0066CC;verticalAlign=top;verticalLabelPosition=bottom;labelPosition=center;align=center;html=1;outlineConnect=0;fillColor=#CCCCCC;strokeColor=#6881B3;gradientColor=none;gradientDirection=north;strokeWidth=2;shape=mxgraph.networks.pc;" vertex="1" parent="1Br-K4Cn2IBCW6UkXx3d-42">
          <mxGeometry x="15" y="190" width="100" height="70" as="geometry" />
        </mxCell>
        <mxCell id="1Br-K4Cn2IBCW6UkXx3d-45" value="" style="group" vertex="1" connectable="0" parent="1">
          <mxGeometry x="-230" y="520" width="140" height="150" as="geometry" />
        </mxCell>
        <mxCell id="1Br-K4Cn2IBCW6UkXx3d-43" value="" style="rounded=1;whiteSpace=wrap;html=1;direction=south;" vertex="1" parent="1Br-K4Cn2IBCW6UkXx3d-45">
          <mxGeometry width="140" height="150" as="geometry" />
        </mxCell>
        <mxCell id="1Br-K4Cn2IBCW6UkXx3d-44" value="Servicio para comprobar&lt;div&gt;que este healthy&lt;/div&gt;" style="sketch=0;aspect=fixed;pointerEvents=1;shadow=0;dashed=0;html=1;strokeColor=none;labelPosition=center;verticalLabelPosition=bottom;verticalAlign=top;align=center;fillColor=#00188D;shape=mxgraph.azure.health_monitoring" vertex="1" parent="1Br-K4Cn2IBCW6UkXx3d-45">
          <mxGeometry x="43.07692307692307" y="30" width="50" height="42" as="geometry" />
        </mxCell>
        <mxCell id="1Br-K4Cn2IBCW6UkXx3d-49" value="Mongo&lt;span style=&quot;background-color: initial;&quot;&gt;DB&lt;/span&gt;" style="sketch=0;points=[[0,0,0],[0.25,0,0],[0.5,0,0],[0.75,0,0],[1,0,0],[0,1,0],[0.25,1,0],[0.5,1,0],[0.75,1,0],[1,1,0],[0,0.25,0],[0,0.5,0],[0,0.75,0],[1,0.25,0],[1,0.5,0],[1,0.75,0]];outlineConnect=0;fontColor=#232F3E;fillColor=#66CC00;strokeColor=#ffffff;dashed=0;verticalLabelPosition=bottom;verticalAlign=top;align=center;html=1;fontSize=12;fontStyle=0;aspect=fixed;shape=mxgraph.aws4.resourceIcon;resIcon=mxgraph.aws4.documentdb_with_mongodb_compatibility;" vertex="1" parent="1">
          <mxGeometry x="685" y="80" width="70" height="70" as="geometry" />
        </mxCell>
        <mxCell id="1Br-K4Cn2IBCW6UkXx3d-60" value="" style="group" vertex="1" connectable="0" parent="1">
          <mxGeometry x="640" y="540" width="165" height="230" as="geometry" />
        </mxCell>
        <mxCell id="1Br-K4Cn2IBCW6UkXx3d-58" value="" style="rounded=1;whiteSpace=wrap;html=1;direction=south;" vertex="1" parent="1Br-K4Cn2IBCW6UkXx3d-60">
          <mxGeometry width="165" height="230" as="geometry" />
        </mxCell>
        <mxCell id="1Br-K4Cn2IBCW6UkXx3d-3" value="Tempo" style="image;aspect=fixed;html=1;points=[];align=center;fontSize=12;image=img/lib/azure2/other/Grafana.svg;" vertex="1" parent="1Br-K4Cn2IBCW6UkXx3d-60">
          <mxGeometry x="102.41189655172421" y="81.58" width="53.56" height="41.58" as="geometry" />
        </mxCell>
        <mxCell id="1Br-K4Cn2IBCW6UkXx3d-56" value="Loki" style="image;aspect=fixed;html=1;points=[];align=center;fontSize=12;image=img/lib/azure2/other/Grafana.svg;" vertex="1" parent="1Br-K4Cn2IBCW6UkXx3d-60">
          <mxGeometry x="102.41189655172421" y="10" width="51.52" height="40" as="geometry" />
        </mxCell>
        <mxCell id="1Br-K4Cn2IBCW6UkXx3d-57" value="Metrics" style="image;aspect=fixed;html=1;points=[];align=center;fontSize=12;image=img/lib/azure2/other/Grafana.svg;" vertex="1" parent="1Br-K4Cn2IBCW6UkXx3d-60">
          <mxGeometry x="101.25120689655182" y="150.00000000000003" width="53.56" height="41.58" as="geometry" />
        </mxCell>
        <mxCell id="1Br-K4Cn2IBCW6UkXx3d-96" value="prometheus" style="image;aspect=fixed;perimeter=ellipsePerimeter;html=1;align=center;shadow=0;dashed=0;spacingTop=3;image=img/lib/active_directory/database.svg;" vertex="1" parent="1Br-K4Cn2IBCW6UkXx3d-60">
          <mxGeometry x="9.999310344827588" y="119.99999999999997" width="50" height="37" as="geometry" />
        </mxCell>
        <mxCell id="1Br-K4Cn2IBCW6UkXx3d-155" style="edgeStyle=orthogonalEdgeStyle;rounded=0;orthogonalLoop=1;jettySize=auto;html=1;exitX=1;exitY=0.75;exitDx=0;exitDy=0;entryX=0.07;entryY=0.577;entryDx=0;entryDy=0;entryPerimeter=0;strokeColor=#A8201A;fontColor=#143642;fillColor=#FAE5C7;" edge="1" parent="1Br-K4Cn2IBCW6UkXx3d-60" source="1Br-K4Cn2IBCW6UkXx3d-96" target="1Br-K4Cn2IBCW6UkXx3d-57">
          <mxGeometry relative="1" as="geometry" />
        </mxCell>
        <mxCell id="1Br-K4Cn2IBCW6UkXx3d-64" value="Open Telemetry" style="sketch=0;points=[[0.015,0.015,0],[0.985,0.015,0],[0.985,0.985,0],[0.015,0.985,0],[0.25,0,0],[0.5,0,0],[0.75,0,0],[1,0.25,0],[1,0.5,0],[1,0.75,0],[0.75,1,0],[0.5,1,0],[0.25,1,0],[0,0.75,0],[0,0.5,0],[0,0.25,0]];verticalLabelPosition=bottom;html=1;verticalAlign=top;aspect=fixed;align=center;pointerEvents=1;shape=mxgraph.cisco19.rect;prIcon=content_router;fillColor=#FAFAFA;strokeColor=#005073;" vertex="1" parent="1">
          <mxGeometry x="370" y="700" width="64" height="50" as="geometry" />
        </mxCell>
        <mxCell id="1Br-K4Cn2IBCW6UkXx3d-66" value="" style="outlineConnect=0;dashed=0;verticalLabelPosition=bottom;verticalAlign=top;align=center;html=1;shape=mxgraph.aws3.mysql_db_instance;fillColor=#2E73B8;gradientColor=none;" vertex="1" parent="1">
          <mxGeometry x="710" y="271" width="60" height="64.5" as="geometry" />
        </mxCell>
        <mxCell id="1Br-K4Cn2IBCW6UkXx3d-73" value="Rabbit MQ" style="verticalLabelPosition=bottom;html=1;verticalAlign=top;align=center;strokeColor=none;fillColor=#00BEF2;shape=mxgraph.azure.service_bus;pointerEvents=1;" vertex="1" parent="1">
          <mxGeometry x="354" y="20" width="60" height="60" as="geometry" />
        </mxCell>
        <mxCell id="1Br-K4Cn2IBCW6UkXx3d-77" value="" style="image;aspect=fixed;perimeter=ellipsePerimeter;html=1;align=center;shadow=0;dashed=0;fontColor=#4277BB;labelBackgroundColor=default;fontSize=12;spacingTop=3;image=img/lib/ibm/blockchain/event_listener.svg;" vertex="1" parent="1">
          <mxGeometry x="580" width="50" height="50" as="geometry" />
        </mxCell>
        <mxCell id="1Br-K4Cn2IBCW6UkXx3d-89" value="Redis" style="image;sketch=0;aspect=fixed;html=1;points=[];align=center;fontSize=12;image=img/lib/mscae/Cache_Redis_Product.svg;" vertex="1" parent="1">
          <mxGeometry x="560" y="180" width="55" height="46.2" as="geometry" />
        </mxCell>
        <mxCell id="1Br-K4Cn2IBCW6UkXx3d-107" style="edgeStyle=orthogonalEdgeStyle;rounded=0;orthogonalLoop=1;jettySize=auto;html=1;exitX=1;exitY=0.5;exitDx=0;exitDy=0;exitPerimeter=0;entryX=0.417;entryY=1;entryDx=0;entryDy=0;entryPerimeter=0;strokeColor=#A8201A;fontColor=#143642;fillColor=#FAE5C7;flowAnimation=1;" edge="1" parent="1" source="1Br-K4Cn2IBCW6UkXx3d-64" target="1Br-K4Cn2IBCW6UkXx3d-58">
          <mxGeometry relative="1" as="geometry" />
        </mxCell>
        <mxCell id="1Br-K4Cn2IBCW6UkXx3d-108" value="Envío de Trazas" style="edgeLabel;html=1;align=center;verticalAlign=middle;resizable=0;points=[];strokeColor=#0F8B8D;fontColor=#143642;fillColor=#FAE5C7;" vertex="1" connectable="0" parent="1Br-K4Cn2IBCW6UkXx3d-107">
          <mxGeometry x="0.0912" y="3" relative="1" as="geometry">
            <mxPoint x="-39" y="53" as="offset" />
          </mxGeometry>
        </mxCell>
        <mxCell id="1Br-K4Cn2IBCW6UkXx3d-126" style="edgeStyle=orthogonalEdgeStyle;rounded=0;orthogonalLoop=1;jettySize=auto;html=1;exitX=0.5;exitY=1;exitDx=0;exitDy=0;entryX=0.5;entryY=0;entryDx=0;entryDy=0;entryPerimeter=0;strokeColor=#A8201A;fontColor=#143642;fillColor=#FAE5C7;" edge="1" parent="1" source="1Br-K4Cn2IBCW6UkXx3d-77" target="1Br-K4Cn2IBCW6UkXx3d-49">
          <mxGeometry relative="1" as="geometry" />
        </mxCell>
        <mxCell id="1Br-K4Cn2IBCW6UkXx3d-127" value="Insert" style="edgeLabel;html=1;align=center;verticalAlign=middle;resizable=0;points=[];strokeColor=#0F8B8D;fontColor=#143642;fillColor=#FAE5C7;" vertex="1" connectable="0" parent="1Br-K4Cn2IBCW6UkXx3d-126">
          <mxGeometry x="-0.0944" y="5" relative="1" as="geometry">
            <mxPoint x="1" as="offset" />
          </mxGeometry>
        </mxCell>
        <mxCell id="1Br-K4Cn2IBCW6UkXx3d-134" style="edgeStyle=orthogonalEdgeStyle;rounded=0;orthogonalLoop=1;jettySize=auto;html=1;exitX=0.5;exitY=0;exitDx=0;exitDy=0;entryX=-0.016;entryY=-0.15;entryDx=0;entryDy=0;strokeColor=#A8201A;fontColor=#143642;fillColor=#FAE5C7;entryPerimeter=0;" edge="1" parent="1" source="1Br-K4Cn2IBCW6UkXx3d-8" target="1Br-K4Cn2IBCW6UkXx3d-26">
          <mxGeometry relative="1" as="geometry" />
        </mxCell>
        <mxCell id="1Br-K4Cn2IBCW6UkXx3d-135" style="edgeStyle=orthogonalEdgeStyle;rounded=0;orthogonalLoop=1;jettySize=auto;html=1;exitX=0.75;exitY=0;exitDx=0;exitDy=0;entryX=0;entryY=0.5;entryDx=0;entryDy=0;strokeColor=#A8201A;fontColor=#143642;fillColor=#FAE5C7;" edge="1" parent="1" source="1Br-K4Cn2IBCW6UkXx3d-8" target="1Br-K4Cn2IBCW6UkXx3d-112">
          <mxGeometry relative="1" as="geometry" />
        </mxCell>
        <mxCell id="1Br-K4Cn2IBCW6UkXx3d-137" style="edgeStyle=orthogonalEdgeStyle;rounded=0;orthogonalLoop=1;jettySize=auto;html=1;exitX=1;exitY=0.5;exitDx=0;exitDy=0;entryX=0;entryY=0.5;entryDx=0;entryDy=0;entryPerimeter=0;strokeColor=#A8201A;fontColor=#143642;fillColor=#FAE5C7;" edge="1" parent="1" source="1Br-K4Cn2IBCW6UkXx3d-27" target="1Br-K4Cn2IBCW6UkXx3d-66">
          <mxGeometry relative="1" as="geometry">
            <Array as="points">
              <mxPoint x="270" y="330" />
              <mxPoint x="695" y="330" />
            </Array>
          </mxGeometry>
        </mxCell>
        <mxCell id="1Br-K4Cn2IBCW6UkXx3d-141" value="Command" style="edgeLabel;html=1;align=center;verticalAlign=middle;resizable=0;points=[];strokeColor=#0F8B8D;fontColor=#143642;fillColor=#FAE5C7;" vertex="1" connectable="0" parent="1Br-K4Cn2IBCW6UkXx3d-137">
          <mxGeometry x="0.3178" y="-2" relative="1" as="geometry">
            <mxPoint as="offset" />
          </mxGeometry>
        </mxCell>
        <mxCell id="1Br-K4Cn2IBCW6UkXx3d-138" style="edgeStyle=orthogonalEdgeStyle;rounded=0;orthogonalLoop=1;jettySize=auto;html=1;exitX=0;exitY=0.5;exitDx=0;exitDy=0;entryX=0.975;entryY=0.5;entryDx=0;entryDy=0;entryPerimeter=0;strokeColor=#A8201A;fontColor=#143642;fillColor=#FAE5C7;" edge="1" parent="1" source="1Br-K4Cn2IBCW6UkXx3d-77" target="1Br-K4Cn2IBCW6UkXx3d-73">
          <mxGeometry relative="1" as="geometry" />
        </mxCell>
        <mxCell id="1Br-K4Cn2IBCW6UkXx3d-139" style="edgeStyle=orthogonalEdgeStyle;rounded=0;orthogonalLoop=1;jettySize=auto;html=1;exitX=1;exitY=0.5;exitDx=0;exitDy=0;entryX=0;entryY=0.5;entryDx=0;entryDy=0;entryPerimeter=0;strokeColor=#A8201A;fontColor=#143642;fillColor=#FAE5C7;" edge="1" parent="1" source="1Br-K4Cn2IBCW6UkXx3d-26" target="1Br-K4Cn2IBCW6UkXx3d-49">
          <mxGeometry relative="1" as="geometry">
            <Array as="points">
              <mxPoint x="270" y="300" />
              <mxPoint x="410" y="300" />
              <mxPoint x="410" y="115" />
            </Array>
          </mxGeometry>
        </mxCell>
        <mxCell id="1Br-K4Cn2IBCW6UkXx3d-140" value="Query" style="edgeLabel;html=1;align=center;verticalAlign=middle;resizable=0;points=[];strokeColor=#0F8B8D;fontColor=#143642;fillColor=#FAE5C7;" vertex="1" connectable="0" parent="1Br-K4Cn2IBCW6UkXx3d-139">
          <mxGeometry x="0.3902" y="-1" relative="1" as="geometry">
            <mxPoint as="offset" />
          </mxGeometry>
        </mxCell>
        <mxCell id="1Br-K4Cn2IBCW6UkXx3d-142" style="edgeStyle=orthogonalEdgeStyle;rounded=0;orthogonalLoop=1;jettySize=auto;html=1;exitX=1;exitY=0.5;exitDx=0;exitDy=0;strokeColor=#A8201A;fontColor=#143642;fillColor=#FAE5C7;entryX=0.982;entryY=0.39;entryDx=0;entryDy=0;entryPerimeter=0;" edge="1" parent="1" source="1Br-K4Cn2IBCW6UkXx3d-26" target="1Br-K4Cn2IBCW6UkXx3d-89">
          <mxGeometry relative="1" as="geometry">
            <mxPoint x="650" y="240" as="targetPoint" />
            <Array as="points">
              <mxPoint x="270" y="330" />
              <mxPoint x="630" y="330" />
              <mxPoint x="630" y="248" />
              <mxPoint x="614" y="248" />
            </Array>
          </mxGeometry>
        </mxCell>
        <mxCell id="1Br-K4Cn2IBCW6UkXx3d-145" value="Remove Key" style="edgeLabel;html=1;align=center;verticalAlign=middle;resizable=0;points=[];strokeColor=#0F8B8D;fontColor=#143642;fillColor=#FAE5C7;" vertex="1" connectable="0" parent="1Br-K4Cn2IBCW6UkXx3d-142">
          <mxGeometry x="0.5411" y="-1" relative="1" as="geometry">
            <mxPoint as="offset" />
          </mxGeometry>
        </mxCell>
        <mxCell id="1Br-K4Cn2IBCW6UkXx3d-143" style="edgeStyle=orthogonalEdgeStyle;rounded=0;orthogonalLoop=1;jettySize=auto;html=1;exitX=1;exitY=0.5;exitDx=0;exitDy=0;entryX=-0.036;entryY=0.433;entryDx=0;entryDy=0;entryPerimeter=0;strokeColor=#A8201A;fontColor=#143642;fillColor=#FAE5C7;" edge="1" parent="1" source="1Br-K4Cn2IBCW6UkXx3d-27" target="1Br-K4Cn2IBCW6UkXx3d-89">
          <mxGeometry relative="1" as="geometry">
            <Array as="points">
              <mxPoint x="270" y="300" />
              <mxPoint x="410" y="300" />
              <mxPoint x="410" y="243" />
              <mxPoint x="558" y="243" />
            </Array>
          </mxGeometry>
        </mxCell>
        <mxCell id="1Br-K4Cn2IBCW6UkXx3d-144" value="Get Data" style="edgeLabel;html=1;align=center;verticalAlign=middle;resizable=0;points=[];strokeColor=#0F8B8D;fontColor=#143642;fillColor=#FAE5C7;" vertex="1" connectable="0" parent="1Br-K4Cn2IBCW6UkXx3d-143">
          <mxGeometry x="0.2902" y="-3" relative="1" as="geometry">
            <mxPoint as="offset" />
          </mxGeometry>
        </mxCell>
        <mxCell id="1Br-K4Cn2IBCW6UkXx3d-146" style="edgeStyle=orthogonalEdgeStyle;rounded=0;orthogonalLoop=1;jettySize=auto;html=1;exitX=0.5;exitY=0;exitDx=0;exitDy=0;entryX=0;entryY=0.5;entryDx=0;entryDy=0;entryPerimeter=0;strokeColor=#A8201A;fontColor=#143642;fillColor=#FAE5C7;" edge="1" parent="1" source="1Br-K4Cn2IBCW6UkXx3d-14" target="1Br-K4Cn2IBCW6UkXx3d-73">
          <mxGeometry relative="1" as="geometry" />
        </mxCell>
        <mxCell id="1Br-K4Cn2IBCW6UkXx3d-30" value="" style="group" vertex="1" connectable="0" parent="1">
          <mxGeometry x="80" y="205.5" width="190" height="464.5" as="geometry" />
        </mxCell>
        <mxCell id="1Br-K4Cn2IBCW6UkXx3d-14" value="" style="rounded=1;whiteSpace=wrap;html=1;" vertex="1" parent="1Br-K4Cn2IBCW6UkXx3d-30">
          <mxGeometry width="190" height="170" as="geometry" />
        </mxCell>
        <mxCell id="1Br-K4Cn2IBCW6UkXx3d-4" value="" style="aspect=fixed;sketch=0;html=1;dashed=0;whitespace=wrap;verticalLabelPosition=bottom;verticalAlign=top;fillColor=#2875E2;strokeColor=#ffffff;points=[[0.005,0.63,0],[0.1,0.2,0],[0.9,0.2,0],[0.5,0,0],[0.995,0.63,0],[0.72,0.99,0],[0.5,1,0],[0.28,0.99,0]];shape=mxgraph.kubernetes.icon2;kubernetesLabel=1;prIcon=api;movable=1;resizable=1;rotatable=1;deletable=1;editable=1;locked=0;connectable=1;shadow=1;" vertex="1" parent="1Br-K4Cn2IBCW6UkXx3d-30">
          <mxGeometry x="68.96" width="52.08" height="50" as="geometry" />
        </mxCell>
        <mxCell id="1Br-K4Cn2IBCW6UkXx3d-25" value="Weather Forecast" style="swimlane;fontStyle=0;childLayout=stackLayout;horizontal=1;startSize=30;horizontalStack=0;resizeParent=1;resizeParentMax=0;resizeLast=0;collapsible=1;marginBottom=0;whiteSpace=wrap;html=1;" vertex="1" parent="1Br-K4Cn2IBCW6UkXx3d-30">
          <mxGeometry y="60" width="190" height="70" as="geometry" />
        </mxCell>
        <mxCell id="1Br-K4Cn2IBCW6UkXx3d-26" value="WeatherForecast/all" style="text;strokeColor=none;fillColor=none;align=left;verticalAlign=middle;spacingLeft=4;spacingRight=4;overflow=hidden;points=[[0,0.5],[1,0.5]];portConstraint=eastwest;rotatable=0;whiteSpace=wrap;html=1;" vertex="1" parent="1Br-K4Cn2IBCW6UkXx3d-25">
          <mxGeometry y="30" width="190" height="20" as="geometry" />
        </mxCell>
        <mxCell id="1Br-K4Cn2IBCW6UkXx3d-27" value="WeatherForecast/create" style="text;strokeColor=none;fillColor=none;align=left;verticalAlign=middle;spacingLeft=4;spacingRight=4;overflow=hidden;points=[[0,0.5],[1,0.5]];portConstraint=eastwest;rotatable=0;whiteSpace=wrap;html=1;" vertex="1" parent="1Br-K4Cn2IBCW6UkXx3d-25">
          <mxGeometry y="50" width="190" height="20" as="geometry" />
        </mxCell>
        <mxCell id="1Br-K4Cn2IBCW6UkXx3d-147" value="/health" style="text;strokeColor=none;fillColor=none;align=left;verticalAlign=middle;spacingLeft=4;spacingRight=4;overflow=hidden;points=[[0,0.5],[1,0.5]];portConstraint=eastwest;rotatable=0;whiteSpace=wrap;html=1;" vertex="1" parent="1Br-K4Cn2IBCW6UkXx3d-30">
          <mxGeometry y="130" width="190" height="20" as="geometry" />
        </mxCell>
        <mxCell id="1Br-K4Cn2IBCW6UkXx3d-149" value="" style="group" vertex="1" connectable="0" parent="1Br-K4Cn2IBCW6UkXx3d-30">
          <mxGeometry y="194.5" width="190" height="155" as="geometry" />
        </mxCell>
        <mxCell id="1Br-K4Cn2IBCW6UkXx3d-111" value="" style="rounded=1;whiteSpace=wrap;html=1;" vertex="1" parent="1Br-K4Cn2IBCW6UkXx3d-149">
          <mxGeometry width="190" height="155" as="geometry" />
        </mxCell>
        <mxCell id="1Br-K4Cn2IBCW6UkXx3d-112" value="Users" style="swimlane;fontStyle=0;childLayout=stackLayout;horizontal=1;startSize=30;horizontalStack=0;resizeParent=1;resizeParentMax=0;resizeLast=0;collapsible=1;marginBottom=0;whiteSpace=wrap;html=1;" vertex="1" parent="1Br-K4Cn2IBCW6UkXx3d-149">
          <mxGeometry y="65" width="190" height="50" as="geometry">
            <mxRectangle y="65" width="70" height="30" as="alternateBounds" />
          </mxGeometry>
        </mxCell>
        <mxCell id="1Br-K4Cn2IBCW6UkXx3d-113" value="User/user" style="text;strokeColor=none;fillColor=none;align=left;verticalAlign=middle;spacingLeft=4;spacingRight=4;overflow=hidden;points=[[0,0.5],[1,0.5]];portConstraint=eastwest;rotatable=0;whiteSpace=wrap;html=1;" vertex="1" parent="1Br-K4Cn2IBCW6UkXx3d-112">
          <mxGeometry y="30" width="190" height="20" as="geometry" />
        </mxCell>
        <mxCell id="1Br-K4Cn2IBCW6UkXx3d-116" value="" style="aspect=fixed;sketch=0;html=1;dashed=0;whitespace=wrap;verticalLabelPosition=bottom;verticalAlign=top;fillColor=#2875E2;strokeColor=#ffffff;points=[[0.005,0.63,0],[0.1,0.2,0],[0.9,0.2,0],[0.5,0,0],[0.995,0.63,0],[0.72,0.99,0],[0.5,1,0],[0.28,0.99,0]];shape=mxgraph.kubernetes.icon2;kubernetesLabel=1;prIcon=api;movable=1;resizable=1;rotatable=1;deletable=1;editable=1;locked=0;connectable=1;shadow=1;" vertex="1" parent="1Br-K4Cn2IBCW6UkXx3d-149">
          <mxGeometry x="68.95999999999995" width="52.08" height="50" as="geometry" />
        </mxCell>
        <mxCell id="1Br-K4Cn2IBCW6UkXx3d-148" value="/health" style="text;strokeColor=none;fillColor=none;align=left;verticalAlign=middle;spacingLeft=4;spacingRight=4;overflow=hidden;points=[[0,0.5],[1,0.5]];portConstraint=eastwest;rotatable=0;whiteSpace=wrap;html=1;" vertex="1" parent="1Br-K4Cn2IBCW6UkXx3d-149">
          <mxGeometry y="120" width="190" height="20" as="geometry" />
        </mxCell>
        <mxCell id="1Br-K4Cn2IBCW6UkXx3d-150" style="edgeStyle=orthogonalEdgeStyle;rounded=0;orthogonalLoop=1;jettySize=auto;html=1;exitX=0.25;exitY=1;exitDx=0;exitDy=0;entryX=0;entryY=0.75;entryDx=0;entryDy=0;entryPerimeter=0;strokeColor=#A8201A;fontColor=#143642;fillColor=#FAE5C7;flowAnimation=1;" edge="1" parent="1" source="1Br-K4Cn2IBCW6UkXx3d-111" target="1Br-K4Cn2IBCW6UkXx3d-64">
          <mxGeometry relative="1" as="geometry">
            <Array as="points">
              <mxPoint x="128" y="740" />
              <mxPoint x="370" y="740" />
            </Array>
          </mxGeometry>
        </mxCell>
        <mxCell id="1Br-K4Cn2IBCW6UkXx3d-151" style="edgeStyle=orthogonalEdgeStyle;rounded=0;orthogonalLoop=1;jettySize=auto;html=1;exitX=0.5;exitY=1;exitDx=0;exitDy=0;entryX=0;entryY=0.5;entryDx=0;entryDy=0;entryPerimeter=0;strokeColor=default;fontColor=#143642;fillColor=#FAE5C7;endArrow=classic;endFill=1;flowAnimation=1;" edge="1" parent="1" source="1Br-K4Cn2IBCW6UkXx3d-14" target="1Br-K4Cn2IBCW6UkXx3d-64">
          <mxGeometry relative="1" as="geometry">
            <Array as="points">
              <mxPoint x="80" y="376" />
              <mxPoint x="80" y="740" />
              <mxPoint x="370" y="740" />
            </Array>
          </mxGeometry>
        </mxCell>
        <mxCell id="1Br-K4Cn2IBCW6UkXx3d-152" value="Logs" style="edgeLabel;html=1;align=center;verticalAlign=middle;resizable=0;points=[];strokeColor=#0F8B8D;fontColor=#143642;fillColor=#FAE5C7;" vertex="1" connectable="0" parent="1Br-K4Cn2IBCW6UkXx3d-151">
          <mxGeometry x="0.6285" y="-2" relative="1" as="geometry">
            <mxPoint x="1" as="offset" />
          </mxGeometry>
        </mxCell>
        <mxCell id="1Br-K4Cn2IBCW6UkXx3d-156" style="edgeStyle=orthogonalEdgeStyle;rounded=0;orthogonalLoop=1;jettySize=auto;html=1;exitX=0.5;exitY=0;exitDx=0;exitDy=0;entryX=0;entryY=0.5;entryDx=0;entryDy=0;strokeColor=#A8201A;fontColor=#143642;fillColor=#FAE5C7;" edge="1" parent="1" source="1Br-K4Cn2IBCW6UkXx3d-43" target="1Br-K4Cn2IBCW6UkXx3d-148">
          <mxGeometry relative="1" as="geometry">
            <Array as="points">
              <mxPoint x="-10" y="595" />
              <mxPoint x="-10" y="530" />
            </Array>
          </mxGeometry>
        </mxCell>
        <mxCell id="1Br-K4Cn2IBCW6UkXx3d-157" style="edgeStyle=orthogonalEdgeStyle;rounded=0;orthogonalLoop=1;jettySize=auto;html=1;exitX=0.25;exitY=0;exitDx=0;exitDy=0;entryX=0;entryY=0.5;entryDx=0;entryDy=0;strokeColor=#A8201A;fontColor=#143642;fillColor=#FAE5C7;" edge="1" parent="1" source="1Br-K4Cn2IBCW6UkXx3d-43" target="1Br-K4Cn2IBCW6UkXx3d-147">
          <mxGeometry relative="1" as="geometry">
            <Array as="points">
              <mxPoint x="-10" y="558" />
              <mxPoint x="-10" y="346" />
            </Array>
          </mxGeometry>
        </mxCell>
      </root>
    </mxGraphModel>
  </diagram>
</mxfile>
